<svg xmlns="http://www.w3.org/2000/svg" viewBox="0 0 1555 404" width="1555" height="404">
  <path d="M257.972 92.208V229.8H224.45600000000002V147.284L193.684 229.8H166.63600000000002L135.668 147.08800000000002V229.8H102.152V92.208H141.744L180.356 187.464L218.576 92.208Z" fill="#0d1117"/>
  <path d="M384.588 183.15200000000002H308.736Q309.52 193.344 315.302 198.734Q321.084 204.12400000000002 329.512 204.12400000000002Q342.056 204.12400000000002 346.956 193.54000000000002H382.628Q379.884 204.32000000000002 372.73 212.94400000000002Q365.576 221.568 354.79600000000005 226.46800000000002Q344.016 231.36800000000002 330.688 231.36800000000002Q314.616 231.36800000000002 302.072 224.50800000000004Q289.528 217.64800000000002 282.472 204.90800000000002Q275.416 192.168 275.416 175.116Q275.416 158.06400000000002 282.374 145.324Q289.332 132.584 301.876 125.724Q314.42 118.864 330.688 118.864Q346.564 118.864 358.91200000000003 125.528Q371.26 132.192 378.21799999999996 144.54000000000002Q385.176 156.888 385.176 173.352Q385.176 178.056 384.588 183.15200000000002ZM350.876 164.532Q350.876 155.90800000000002 344.996 150.812Q339.116 145.716 330.296 145.716Q321.868 145.716 316.086 150.616Q310.304 155.51600000000002 308.932 164.532Z" fill="#0d1117"/>
  <path d="M444.368 118.864Q455.148 118.864 464.06600000000003 123.37200000000001Q472.984 127.88000000000001 478.08 135.524V84.76000000000002H511.596V229.8H478.08V214.12Q473.376 221.96 464.654 226.66400000000002Q455.932 231.36800000000002 444.368 231.36800000000002Q430.844 231.36800000000002 419.868 224.41000000000003Q408.892 217.452 402.522 204.614Q396.152 191.776 396.152 174.92000000000002Q396.152 158.06400000000002 402.522 145.324Q408.892 132.584 419.868 125.724Q430.844 118.864 444.368 118.864ZM454.168 148.068Q444.17199999999997 148.068 437.21399999999994 155.222Q430.256 162.376 430.256 174.92000000000002Q430.256 187.464 437.21399999999994 194.81400000000002Q444.17199999999997 202.16400000000002 454.168 202.16400000000002Q464.164 202.16400000000002 471.12199999999996 194.91200000000003Q478.08 187.66000000000003 478.08 175.116Q478.08 162.572 471.12199999999996 155.32Q464.164 148.068 454.168 148.068Z" fill="#0d1117"/>
  <path d="M532.764 91.03200000000001Q532.764 83.19200000000001 538.35 77.998Q543.936 72.804 552.7560000000001 72.804Q561.3800000000001 72.804 566.9660000000001 77.998Q572.552 83.19200000000001 572.552 91.03200000000001Q572.552 98.67600000000002 566.9660000000001 103.87Q561.3800000000001 109.06400000000001 552.7560000000001 109.06400000000001Q543.936 109.06400000000001 538.35 103.87Q532.764 98.67600000000002 532.764 91.03200000000001ZM569.416 120.432V229.8H535.9000000000001V120.432Z" fill="#0d1117"/>
  <path d="M641.9360000000001 118.864Q662.5160000000001 118.864 676.3340000000001 129.644Q690.152 140.424 694.464 160.024H658.7920000000001Q654.2840000000001 147.48000000000002 641.3480000000001 147.48000000000002Q632.1360000000001 147.48000000000002 626.6480000000001 154.63400000000001Q621.1600000000001 161.788 621.1600000000001 175.116Q621.1600000000001 188.44400000000002 626.6480000000001 195.598Q632.1360000000001 202.752 641.3480000000001 202.752Q654.2840000000001 202.752 658.7920000000001 190.20800000000003H694.464Q690.152 209.416 676.2360000000001 220.392Q662.3200000000002 231.36800000000002 641.9360000000001 231.36800000000002Q625.8640000000001 231.36800000000002 613.4180000000001 224.50800000000004Q600.9720000000001 217.64800000000002 594.0140000000001 204.90800000000002Q587.0560000000002 192.168 587.0560000000002 175.116Q587.0560000000002 158.06400000000002 594.0140000000001 145.324Q600.9720000000001 132.584 613.4180000000001 125.724Q625.8640000000001 118.864 641.9360000000001 118.864Z" fill="#0d1117"/>
  <path d="M820.2960000000002 120.432V229.8H786.7800000000002V214.904Q781.6840000000002 222.156 772.9620000000002 226.566Q764.2400000000001 230.976 753.6560000000002 230.976Q741.1120000000001 230.976 731.508 225.39Q721.9040000000001 219.804 716.6120000000001 209.22000000000003Q711.3200000000002 198.63600000000002 711.3200000000002 184.328V120.432H744.6400000000001V179.82Q744.6400000000001 190.796 750.3240000000001 196.872Q756.0080000000002 202.948 765.6120000000001 202.948Q775.4120000000001 202.948 781.0960000000002 196.872Q786.7800000000002 190.796 786.7800000000002 179.82V120.432Z" fill="#0d1117"/>
  <path d="M838.5240000000002 193.93200000000002H871.6480000000001Q872.2360000000002 199.616 876.9400000000003 203.144Q881.6440000000002 206.67200000000003 888.5040000000001 206.67200000000003Q894.7760000000002 206.67200000000003 898.2060000000001 204.22200000000004Q901.6360000000002 201.77200000000002 901.6360000000002 197.852Q901.6360000000002 193.14800000000002 896.7360000000002 190.894Q891.8360000000002 188.64000000000001 880.8600000000001 185.89600000000002Q869.1000000000001 183.15200000000002 861.2600000000002 180.11400000000003Q853.4200000000002 177.07600000000002 847.7360000000001 170.51000000000002Q842.0520000000001 163.94400000000002 842.0520000000001 152.772Q842.0520000000001 143.364 847.2460000000001 135.622Q852.4400000000002 127.88000000000001 862.5340000000001 123.37200000000001Q872.6280000000002 118.864 886.5440000000002 118.864Q907.1240000000001 118.864 918.9820000000002 129.05599999999998Q930.8400000000001 139.248 932.6040000000002 156.104H901.6360000000002Q900.8520000000002 150.42000000000002 896.6380000000001 147.08800000000002Q892.4240000000002 143.75600000000003 885.5640000000002 143.75600000000003Q879.6840000000002 143.75600000000003 876.5480000000002 146.01000000000002Q873.4120000000001 148.264 873.4120000000001 152.18400000000003Q873.4120000000001 156.888 878.4100000000001 159.24Q883.4080000000001 161.592 893.9920000000002 163.94400000000002Q906.1440000000002 167.08 913.7880000000002 170.118Q921.4320000000002 173.156 927.2140000000002 179.918Q932.9960000000002 186.68 933.1920000000002 198.048Q933.1920000000002 207.65200000000002 927.8020000000001 215.198Q922.4120000000001 222.744 912.3180000000002 227.056Q902.2240000000002 231.36800000000002 888.8960000000002 231.36800000000002Q874.5880000000002 231.36800000000002 863.4160000000002 226.46800000000002Q852.2440000000001 221.568 845.7760000000002 213.04200000000003Q839.3080000000002 204.51600000000002 838.5240000000002 193.93200000000002Z" fill="#0d1117"/>
  <path d="M987.668 203.928H1031.5720000000001V229.8H954.152V92.208H987.668Z" fill="#10b981"/>
  <path d="M1041.468 160.61200000000002Q1041.468 140.424 1050.9740000000002 124.352Q1060.48 108.28 1076.65 99.26400000000001Q1092.82 90.24800000000002 1112.224 90.24800000000002Q1131.628 90.24800000000002 1147.798 99.26400000000001Q1163.968 108.28 1173.278 124.352Q1182.588 140.424 1182.588 160.61200000000002Q1182.588 180.8 1173.1799999999998 196.97000000000003Q1163.772 213.14000000000001 1147.6999999999998 222.156Q1131.628 231.17200000000003 1112.224 231.17200000000003Q1092.82 231.17200000000003 1076.65 222.156Q1060.48 213.14000000000001 1050.9740000000002 196.97000000000003Q1041.468 180.8 1041.468 160.61200000000002ZM1148.484 160.61200000000002Q1148.484 142.38400000000001 1138.586 131.506Q1128.688 120.628 1112.224 120.628Q1095.564 120.628 1085.6660000000002 131.408Q1075.768 142.188 1075.768 160.61200000000002Q1075.768 178.84 1085.6660000000002 189.71800000000002Q1095.564 200.596 1112.224 200.596Q1128.688 200.596 1138.586 189.62Q1148.484 178.644 1148.484 160.61200000000002Z" fill="#10b981"/>
  <path d="M 1306.80,100.64 A 77.00,70.00 0 1,1 1237.16,95.10 L 1245.77,116.42 A 54.00,47.00 0 1,0 1294.62,120.14 Z" fill="#10b981"/>
  <polygon points="1264.26,91.07 1312.95,77.89 1280.55,138.81" fill="#10b981"/>
  <path d="M1407.444 180.40800000000002H1386.668V229.8H1353.152V92.208H1407.444Q1423.908 92.208 1435.2759999999998 97.892Q1446.644 103.57600000000001 1452.328 113.572Q1458.012 123.56800000000001 1458.012 136.50400000000002Q1458.012 148.46 1452.524 158.358Q1447.036 168.256 1435.6680000000001 174.332Q1424.3 180.40800000000002 1407.444 180.40800000000002ZM1423.908 136.50400000000002Q1423.908 128.272 1419.204 123.764Q1414.5 119.256 1404.896 119.256H1386.668V153.752H1404.896Q1414.5 153.752 1419.204 149.244Q1423.908 144.736 1423.908 136.50400000000002Z" fill="#10b981"/>
  <path d="M153.05854337239793 261.6060362819072V313.25959222989246H140.47626692352972V282.282174773907L128.9241183710601 313.25959222989246H118.77000053513137L107.14427141863328 282.2085942098785V313.25959222989246H94.56199496976508V261.6060362819072H109.42526890351581L123.92064001712421 297.3661903997432L138.26885000267566 261.6060362819072Z" fill="#10b981"/>
  <path d="M200.5915877347889 295.74741799111683H172.11590945577137Q172.41023171188527 299.5736073205972 174.58085835072512 301.5970728313801Q176.75148498956494 303.620538342163 179.9154492427891 303.620538342163Q184.6246053406111 303.620538342163 186.46411944132285 299.6471878846257H199.8557820945042Q198.82565419810564 303.6941189061915 196.13996361106652 306.9316637234441Q193.4542730240274 310.1692085406968 189.4073420024616 312.0087226414085Q185.3604109808958 313.8482367421202 180.35693262695992 313.8482367421202Q174.32332637662546 313.8482367421202 169.61417027880344 311.2729170011238Q164.90501418098142 308.6975972601274 162.25611387595654 303.9148605982769Q159.60721357093166 299.1321239364264 159.60721357093166 292.73061486594963Q159.60721357093166 286.3291057954728 162.2193235939423 281.5463691336223Q164.83143361695295 276.76363247177187 169.54058971477497 274.18831273077546Q174.24974581259698 271.612992989779 180.35693262695992 271.612992989779Q186.3169583132659 271.612992989779 190.95253384705944 274.114732166747Q195.58810938085298 276.6164713437149 198.20021940386363 281.25204687750846Q200.8123294268743 285.887622411302 200.8123294268743 292.0683897896934Q200.8123294268743 293.83432332637665 200.5915877347889 295.74741799111683ZM187.9357307218922 288.7572644084123Q187.9357307218922 285.5197195911596 185.72831380103815 283.60662492641944Q183.52089688018407 281.69353026167926 180.20977149890297 281.69353026167926Q177.04580724567882 281.69353026167926 174.87518060683897 283.533044362391Q172.70455396799915 285.37255846310273 172.18949001979985 288.7572644084123ZM188.81869749023386 261.6796168459357 171.08578155937283 269.111253812811V260.42874725745173L188.81869749023386 251.8934018301493Z" fill="#10b981"/>
  <path d="M223.03365976347195 271.612992989779Q227.08059078503774 271.612992989779 230.42850644833308 273.30534596243376Q233.77642211162842 274.9976989350886 235.6895167763686 277.8673409321989V258.8099748488254H248.27179322523682V313.25959222989246H235.6895167763686V307.37314710761495Q233.92358323968534 310.3163696687537 230.64924814041848 312.0823032054369Q227.37491304115161 313.8482367421202 223.03365976347195 313.8482367421202Q217.95660084550758 313.8482367421202 213.8360892599133 311.23612671910956Q209.71557767431906 308.6240166960989 207.32420934339382 303.8044897522342Q204.93284101246857 298.98496280836946 204.93284101246857 292.65703430192116Q204.93284101246857 286.3291057954728 207.32420934339382 281.5463691336223Q209.71557767431906 276.76363247177187 213.8360892599133 274.18831273077546Q217.95660084550758 271.612992989779 223.03365976347195 271.612992989779ZM226.7126879648954 282.5764970300209Q222.96007919944347 282.5764970300209 220.34796917643283 285.26218761706Q217.73585915342218 287.94787820409914 217.73585915342218 292.65703430192116Q217.73585915342218 297.3661903997432 220.34796917643283 300.12546155081077Q222.96007919944347 302.8847327018783 226.7126879648954 302.8847327018783Q230.46529673034732 302.8847327018783 233.07740675335796 300.16225183282495Q235.6895167763686 297.43977096377165 235.6895167763686 292.73061486594963Q235.6895167763686 288.0214587681276 233.07740675335796 285.29897789907426Q230.46529673034732 282.5764970300209 226.7126879648954 282.5764970300209Z" fill="#10b981"/>
  <path d="M295.87841815165626 295.74741799111683H267.40273987263873Q267.69706212875263 299.5736073205972 269.8676887675924 301.5970728313801Q272.0383154064323 303.620538342163 275.2022796596565 303.620538342163Q279.9114357574785 303.620538342163 281.7509498581902 299.6471878846257H295.14261251137157Q294.11248461497297 303.6941189061915 291.42679402793385 306.9316637234441Q288.74110344089473 310.1692085406968 284.694172419329 312.0087226414085Q280.6472413977632 313.8482367421202 275.6437630438273 313.8482367421202Q269.6101567934928 313.8482367421202 264.9010006956708 311.2729170011238Q260.1918445978488 308.6975972601274 257.5429442928239 303.9148605982769Q254.89404398779902 299.1321239364264 254.89404398779902 292.73061486594963Q254.89404398779902 286.3291057954728 257.50615401080967 281.5463691336223Q260.1182640338203 276.76363247177187 264.8274201316423 274.18831273077546Q269.53657622946434 271.612992989779 275.6437630438273 271.612992989779Q281.60378873013326 271.612992989779 286.2393642639268 274.114732166747Q290.87493979772034 276.6164713437149 293.487049820731 281.25204687750846Q296.09915984374163 285.887622411302 296.09915984374163 292.0683897896934Q296.09915984374163 293.83432332637665 295.87841815165626 295.74741799111683ZM283.2225611387596 288.7572644084123Q283.2225611387596 285.5197195911596 281.0151442179055 283.60662492641944Q278.80772729705143 281.69353026167926 275.4966019157703 281.69353026167926Q272.3326376625462 281.69353026167926 270.1620110237063 283.533044362391Q267.9913843848665 285.37255846310273 267.4763204366672 288.7572644084123Z" fill="#10b981"/>
  <path d="M320.8222293573072 271.612992989779Q328.5481885802965 271.612992989779 333.73561834430353 275.6599240113448Q338.9230481083106 279.7068550329106 340.5418205169369 287.0649114357575H327.15015786375557Q325.45780489110075 282.3557553379355 320.60148766522184 282.3557553379355Q317.1432011558838 282.3557553379355 315.08294536308665 285.0414459249746Q313.0226895702895 287.7271365120137 313.0226895702895 292.73061486594963Q313.0226895702895 297.7340932198855 315.08294536308665 300.4197838069246Q317.1432011558838 303.10547439396373 320.60148766522184 303.10547439396373Q325.45780489110075 303.10547439396373 327.15015786375557 298.3963182961417H340.5418205169369Q338.9230481083106 305.60721357093166 333.6988280622893 309.72772515652593Q328.474608016268 313.8482367421202 320.8222293573072 313.8482367421202Q314.78862310697275 313.8482367421202 310.11625729116497 311.2729170011238Q305.4438914753572 308.6975972601274 302.83178145234655 303.9148605982769Q300.2196714293359 299.1321239364264 300.2196714293359 292.73061486594963Q300.2196714293359 286.3291057954728 302.83178145234655 281.5463691336223Q305.4438914753572 276.76363247177187 310.11625729116497 274.18831273077546Q314.78862310697275 271.612992989779 320.8222293573072 271.612992989779Z" fill="#10b981"/>
  <path d="M346.06036281907205 261.1645528977364Q346.06036281907205 258.22133033659765 348.1574088938834 256.2714453898432Q350.2544549686948 254.3215604430888 353.5655803499759 254.3215604430888Q356.80312516722853 254.3215604430888 358.9001712420399 256.2714453898432Q360.9972173168513 258.22133033659765 360.9972173168513 261.1645528977364Q360.9972173168513 264.0341948948467 358.9001712420399 265.9840798416011Q356.80312516722853 267.9339647883556 353.5655803499759 267.9339647883556Q350.2544549686948 267.9339647883556 348.1574088938834 265.9840798416011Q346.06036281907205 264.0341948948467 346.06036281907205 261.1645528977364ZM359.81992829239573 272.20163750200675V313.25959222989246H347.23765184352754V272.20163750200675Z" fill="#10b981"/>
  <path d="M409.7811312677262 289.2723283566116V313.25959222989246H397.2724353828865V290.96468132926634Q397.2724353828865 286.84416974367207 395.1385990260609 284.56317225878956Q393.0047626692353 282.282174773907 389.39931503184033 282.282174773907Q385.79386739444533 282.282174773907 383.6600310376197 284.56317225878956Q381.5261946807941 286.84416974367207 381.5261946807941 290.96468132926634V313.25959222989246H368.9439182319259V272.20163750200675H381.5261946807941V277.64659924011346Q383.43928934553435 274.9241183710601 386.676834162787 273.34213624444806Q389.9143789800396 271.76015411783595 393.9613100016054 271.76015411783595Q401.17220527639535 271.76015411783595 405.4766682720608 276.43251993364373Q409.7811312677262 281.1048857494515 409.7811312677262 289.2723283566116Z" fill="#10b981"/>
  <path d="M466.2910044415904 304.1356022903623H447.01289666613155L443.9225129769359 313.25959222989246H430.7515920158399L449.441055279071 261.6060362819072H464.0100069567079L482.69947021993903 313.25959222989246H469.38138813078615ZM463.0534596243378 294.4229678386044 456.651950553861 275.51276288328785 450.32402204741265 294.4229678386044Z" fill="#10b981"/>
  <path d="M529.2023866859314 289.2723283566116V313.25959222989246H516.6936908010916V290.96468132926634Q516.6936908010916 286.84416974367207 514.5598544442661 284.56317225878956Q512.4260180874405 282.282174773907 508.8205704500455 282.282174773907Q505.2151228126505 282.282174773907 503.0812864558249 284.56317225878956Q500.9474500989993 286.84416974367207 500.9474500989993 290.96468132926634V313.25959222989246H488.3651736501311V272.20163750200675H500.9474500989993V277.64659924011346Q502.86054476373954 274.9241183710601 506.09808958099217 273.34213624444806Q509.3356343982448 271.76015411783595 513.3825654198106 271.76015411783595Q520.5934606946006 271.76015411783595 524.897923690266 276.43251993364373Q529.2023866859314 281.1048857494515 529.2023866859314 289.2723283566116Z" fill="#10b981"/>
  <path d="M576.4411087922085 295.74741799111683H547.965430513191Q548.2597527693049 299.5736073205972 550.4303794081447 301.5970728313801Q552.6010060469846 303.620538342163 555.7649703002087 303.620538342163Q560.4741263980308 303.620538342163 562.3136404987424 299.6471878846257H575.7053031519238Q574.6751752555252 303.6941189061915 571.989484668486 306.9316637234441Q569.303794081447 310.1692085406968 565.2568630598812 312.0087226414085Q561.2099320383154 313.8482367421202 556.2064536843795 313.8482367421202Q550.172847434045 313.8482367421202 545.4636913362231 311.2729170011238Q540.7545352384011 308.6975972601274 538.1056349333762 303.9148605982769Q535.4567346283512 299.1321239364264 535.4567346283512 292.73061486594963Q535.4567346283512 286.3291057954728 538.0688446513619 281.5463691336223Q540.6809546743726 276.76363247177187 545.3901107721947 274.18831273077546Q550.0992668700167 271.612992989779 556.2064536843795 271.612992989779Q562.1664793706856 271.612992989779 566.8020549044791 274.114732166747Q571.4376304382727 276.6164713437149 574.0497404612834 281.25204687750846Q576.661850484294 285.887622411302 576.661850484294 292.0683897896934Q576.661850484294 293.83432332637665 576.4411087922085 295.74741799111683ZM563.7852517793118 288.7572644084123Q563.7852517793118 285.5197195911596 561.5778348584578 283.60662492641944Q559.3704179376037 281.69353026167926 556.0592925563226 281.69353026167926Q552.8953283030984 281.69353026167926 550.7247016642586 283.533044362391Q548.5540750254188 285.37255846310273 548.0390110772195 288.7572644084123Z" fill="#10b981"/>
  <path d="M581.076684326002 299.79434901268263H593.5117996468133Q593.7325413388987 301.92818536950824 595.4984748755819 303.2526355220207Q597.2644084122652 304.5770856745331 599.8397281532616 304.5770856745331Q602.1943062021726 304.5770856745331 603.4819660726708 303.65732862417724Q604.7696259431691 302.7375715738214 604.7696259431691 301.265960293252Q604.7696259431691 299.5000267565688 602.9301118424573 298.6538502702414Q601.0905977417456 297.80767378391397 596.9700861561513 296.77754588751543Q592.5552523144432 295.74741799111683 589.6120297533045 294.6069192486756Q586.6688071921657 293.46642050623433 584.5349708353401 291.00147161128064Q582.4011344785145 288.5365227163269 582.4011344785145 284.34243056670414Q582.4011344785145 280.81056349333767 584.3510194252689 277.9041312142131Q586.3009043720233 274.9976989350886 590.0903034194895 273.30534596243376Q593.8797024669557 271.612992989779 599.103922512977 271.612992989779Q606.8298817359662 271.612992989779 611.2815058596885 275.43918231925943Q615.7331299834109 279.2653716487398 616.3953550596672 285.5933001551881H604.7696259431691Q604.4753036870552 283.45946379836255 602.8933215604432 282.2085942098786Q601.311339433831 280.95772462139456 598.7360196928346 280.95772462139456Q596.5286027719806 280.95772462139456 595.351313747525 281.80390110772197Q594.1740247230695 282.6500775940494 594.1740247230695 284.1216888746187Q594.1740247230695 285.887622411302 596.0503291057955 286.7705891796436Q597.9266334885215 287.65355594798524 601.8999839460588 288.5365227163269Q606.4619789158238 289.7138117407824 609.3316209129341 290.8543104832237Q612.2012629100444 291.99480922566494 614.3718895488843 294.5333386846471Q616.5425161877241 297.0718681436293 616.6160967517526 301.3395408572805Q616.6160967517526 304.94498849467544 614.5926312409697 307.7778402097715Q612.5691657301868 310.6106919248676 608.7797666827206 312.22946433349387Q604.9903676352544 313.8482367421202 599.9868892813186 313.8482367421202Q594.6155081072403 313.8482367421202 590.4214159576176 312.0087226414085Q586.2273238079948 310.1692085406968 583.7991651950554 306.9684540054584Q581.3710065821159 303.76769947021995 581.076684326002 299.79434901268263Z" fill="#10b981"/>
  <path d="M647.2256113875956 302.59041044576446V313.25959222989246H640.8241023171188Q633.9811098624712 313.25959222989246 630.1549205329908 309.9116765665971Q626.3287312035104 306.5637609033018 626.3287312035104 298.98496280836946V282.6500775940494H621.3252528495746V272.20163750200675H626.3287312035104V262.19468079413497H638.9110076523787V272.20163750200675H647.1520308235672V282.6500775940494H638.9110076523787V299.1321239364264Q638.9110076523787 300.9716380371381 639.7939744207202 301.7810242414513Q640.6769411890618 302.59041044576446 642.737196981859 302.59041044576446Z" fill="#10b981"/>
  <path d="M695.0529780061005 289.2723283566116V313.25959222989246H682.5442821212607V290.96468132926634Q682.5442821212607 286.84416974367207 680.4104457644352 284.56317225878956Q678.2766094076096 282.282174773907 674.6711617702146 282.282174773907Q671.0657141328196 282.282174773907 668.931877775994 284.56317225878956Q666.7980414191684 286.84416974367207 666.7980414191684 290.96468132926634V313.25959222989246H654.2157649703003V258.8099748488254H666.7980414191684V277.72017980414194Q668.7111360839086 274.9976989350886 672.0222614651898 273.37892652646224Q675.3333868464708 271.76015411783595 679.4538984320651 271.76015411783595Q686.5176325787982 271.76015411783595 690.7853052924493 276.43251993364373Q695.0529780061005 281.1048857494515 695.0529780061005 289.2723283566116Z" fill="#10b981"/>
  <path d="M742.2917001123776 295.74741799111683H713.8160218333601Q714.110344089474 299.5736073205972 716.2809707283138 301.5970728313801Q718.4515973671537 303.620538342163 721.6155616203778 303.620538342163Q726.3247177181998 303.620538342163 728.1642318189115 299.6471878846257H741.5558944720929Q740.5257665756943 303.6941189061915 737.8400759886551 306.9316637234441Q735.1543854016161 310.1692085406968 731.1074543800503 312.0087226414085Q727.0605233584845 313.8482367421202 722.0570450045486 313.8482367421202Q716.0234387542141 313.8482367421202 711.3142826563922 311.2729170011238Q706.6051265585702 308.6975972601274 703.9562262535453 303.9148605982769Q701.3073259485203 299.1321239364264 701.3073259485203 292.73061486594963Q701.3073259485203 286.3291057954728 703.919435971531 281.5463691336223Q706.5315459945417 276.76363247177187 711.2407020923638 274.18831273077546Q715.9498581901858 271.612992989779 722.0570450045486 271.612992989779Q728.0170706908547 271.612992989779 732.6526462246482 274.114732166747Q737.2882217584418 276.6164713437149 739.9003317814525 281.25204687750846Q742.512441804463 285.887622411302 742.512441804463 292.0683897896934Q742.512441804463 293.83432332637665 742.2917001123776 295.74741799111683ZM729.6358430994809 288.7572644084123Q729.6358430994809 285.5197195911596 727.4284261786269 283.60662492641944Q725.2210092577728 281.69353026167926 721.9098838764917 281.69353026167926Q718.7459196232675 281.69353026167926 716.5752929844277 283.533044362391Q714.4046663455879 285.37255846310273 713.8896023973886 288.7572644084123ZM730.5188098678225 261.6796168459357 712.7858939369614 269.111253812811V260.42874725745173L730.5188098678225 251.8934018301493Z" fill="#10b981"/>
  <path d="M746.9272756461711 299.79434901268263H759.3623909669824Q759.5831326590678 301.92818536950824 761.349066195751 303.2526355220207Q763.1149997324343 304.5770856745331 765.6903194734307 304.5770856745331Q768.0448975223417 304.5770856745331 769.3325573928399 303.65732862417724Q770.6202172633382 302.7375715738214 770.6202172633382 301.265960293252Q770.6202172633382 299.5000267565688 768.7807031626264 298.6538502702414Q766.9411890619147 297.80767378391397 762.8206774763204 296.77754588751543Q758.4058436346123 295.74741799111683 755.4626210734735 294.6069192486756Q752.5193985123348 293.46642050623433 750.3855621555092 291.00147161128064Q748.2517257986835 288.5365227163269 748.2517257986835 284.34243056670414Q748.2517257986835 280.81056349333767 750.201610745438 277.9041312142131Q752.1514956921924 274.9976989350886 755.9408947396586 273.30534596243376Q759.7302937871248 271.612992989779 764.954513833146 271.612992989779Q772.6804730561353 271.612992989779 777.1320971798576 275.43918231925943Q781.58372130358 279.2653716487398 782.2459463798363 285.5933001551881H770.6202172633382Q770.3258950072243 283.45946379836255 768.7439128806122 282.2085942098786Q767.1619307540001 280.95772462139456 764.5866110130037 280.95772462139456Q762.3791940921496 280.95772462139456 761.201905067694 281.80390110772197Q760.0246160432386 282.6500775940494 760.0246160432386 284.1216888746187Q760.0246160432386 285.887622411302 761.9009204259646 286.7705891796436Q763.7772248086906 287.65355594798524 767.7505752662279 288.5365227163269Q772.3125702359929 289.7138117407824 775.1822122331032 290.8543104832237Q778.0518542302135 291.99480922566494 780.2224808690534 294.5333386846471Q782.3931075078932 297.0718681436293 782.4666880719217 301.3395408572805Q782.4666880719217 304.94498849467544 780.4432225611388 307.7778402097715Q778.4197570503559 310.6106919248676 774.6303580028897 312.22946433349387Q770.8409589554235 313.8482367421202 765.8374806014876 313.8482367421202Q760.4660994274094 313.8482367421202 756.2720072777867 312.0087226414085Q752.0779151281639 310.1692085406968 749.6497565152245 306.9684540054584Q747.221597902285 303.76769947021995 746.9272756461711 299.79434901268263Z" fill="#10b981"/>
  <path d="M789.0153582704553 261.1645528977364Q789.0153582704553 258.22133033659765 791.1124043452667 256.2714453898432Q793.209450420078 254.3215604430888 796.5205758013592 254.3215604430888Q799.7581206186118 254.3215604430888 801.8551666934231 256.2714453898432Q803.9522127682345 258.22133033659765 803.9522127682345 261.1645528977364Q803.9522127682345 264.0341948948467 801.8551666934231 265.9840798416011Q799.7581206186118 267.9339647883556 796.5205758013592 267.9339647883556Q793.209450420078 267.9339647883556 791.1124043452667 265.9840798416011Q789.0153582704553 264.0341948948467 789.0153582704553 261.1645528977364ZM802.774923743779 272.20163750200675V313.25959222989246H790.1926472949109V272.20163750200675Z" fill="#10b981"/>
  <path d="M809.6914967624551 299.79434901268263H822.1266120832664Q822.3473537753518 301.92818536950824 824.113287312035 303.2526355220207Q825.8792208487183 304.5770856745331 828.4545405897147 304.5770856745331Q830.8091186386257 304.5770856745331 832.096778509124 303.65732862417724Q833.3844383796222 302.7375715738214 833.3844383796222 301.265960293252Q833.3844383796222 299.5000267565688 831.5449242789105 298.6538502702414Q829.7054101781987 297.80767378391397 825.5848985926044 296.77754588751543Q821.1700647508964 295.74741799111683 818.2268421897576 294.6069192486756Q815.2836196286188 293.46642050623433 813.1497832717932 291.00147161128064Q811.0159469149676 288.5365227163269 811.0159469149676 284.34243056670414Q811.0159469149676 280.81056349333767 812.965831861722 277.9041312142131Q814.9157168084764 274.9976989350886 818.7051158559426 273.30534596243376Q822.4945149034088 271.612992989779 827.7187349494301 271.612992989779Q835.4446941724193 271.612992989779 839.8963182961417 275.43918231925943Q844.347942419864 279.2653716487398 845.0101674961203 285.5933001551881H833.3844383796222Q833.0901161235083 283.45946379836255 831.5081339968963 282.2085942098786Q829.9261518702841 280.95772462139456 827.3508321292877 280.95772462139456Q825.1434152084337 280.95772462139456 823.9661261839781 281.80390110772197Q822.7888371595226 282.6500775940494 822.7888371595226 284.1216888746187Q822.7888371595226 285.887622411302 824.6651415422486 286.7705891796436Q826.5414459249746 287.65355594798524 830.5147963825119 288.5365227163269Q835.0767913522769 289.7138117407824 837.9464333493872 290.8543104832237Q840.8160753464975 291.99480922566494 842.9867019853374 294.5333386846471Q845.1573286241772 297.0718681436293 845.2309091882057 301.3395408572805Q845.2309091882057 304.94498849467544 843.2074436774228 307.7778402097715Q841.1839781666399 310.6106919248676 837.3945791191737 312.22946433349387Q833.6051800717075 313.8482367421202 828.6017017177717 313.8482367421202Q823.2303205436934 313.8482367421202 819.0362283940707 312.0087226414085Q814.8421362444479 310.1692085406968 812.4139776315085 306.9684540054584Q809.985819018569 303.76769947021995 809.6914967624551 299.79434901268263Z" fill="#10b981"/>
  <path d="M875.8404238240487 302.59041044576446V313.25959222989246H869.4389147535719Q862.5959222989243 313.25959222989246 858.7697329694439 309.9116765665971Q854.9435436399635 306.5637609033018 854.9435436399635 298.98496280836946V282.6500775940494H849.9400652860277V272.20163750200675H854.9435436399635V262.19468079413497H867.5258200888318V272.20163750200675H875.7668432600203V282.6500775940494H867.5258200888318V299.1321239364264Q867.5258200888318 300.9716380371381 868.4087868571734 301.7810242414513Q869.291753625515 302.59041044576446 871.3520094183122 302.59041044576446Z" fill="#10b981"/>
  <path d="M921.3132123936426 295.74741799111683H892.8375341146251Q893.131856370739 299.5736073205972 895.3024830095789 301.5970728313801Q897.4731096484187 303.620538342163 900.6370739016428 303.620538342163Q905.3462299994649 303.620538342163 907.1857441001765 299.6471878846257H920.5774067533579Q919.5472788569593 303.6941189061915 916.8615882699203 306.9316637234441Q914.1758976828811 310.1692085406968 910.1289666613153 312.0087226414085Q906.0820356397495 313.8482367421202 901.0785572858136 313.8482367421202Q895.0449510354791 313.8482367421202 890.3357949376572 311.2729170011238Q885.6266388398352 308.6975972601274 882.9777385348102 303.9148605982769Q880.3288382297853 299.1321239364264 880.3288382297853 292.73061486594963Q880.3288382297853 286.3291057954728 882.940948252796 281.5463691336223Q885.5530582758067 276.76363247177187 890.2622143736287 274.18831273077546Q894.9713704714508 271.612992989779 901.0785572858136 271.612992989779Q907.0385829721197 271.612992989779 911.6741585059133 274.114732166747Q916.3097340397068 276.6164713437149 918.9218440627174 281.25204687750846Q921.533954085728 285.887622411302 921.533954085728 292.0683897896934Q921.533954085728 293.83432332637665 921.3132123936426 295.74741799111683ZM908.6573553807459 288.7572644084123Q908.6573553807459 285.5197195911596 906.4499384598919 283.60662492641944Q904.2425215390379 281.69353026167926 900.9313961577567 281.69353026167926Q897.7674319045325 281.69353026167926 895.5968052656926 283.533044362391Q893.4261786268529 285.37255846310273 892.9111146786536 288.7572644084123Z" fill="#10b981"/>
  <path d="M959.7958473805319 282.2085942098785V292.65703430192116H927.4203992080055V282.2085942098785Z" fill="#10b981"/>
  <path d="M997.1747739069941 313.25959222989246 986.4320115588376 293.7607427623482H983.4152084336704V313.25959222989246H970.8329319848023V261.6060362819072H991.9505538609728Q998.0577406753357 261.6060362819072 1002.3622036710012 263.73987263873283Q1006.6666666666666 265.87370899555845 1008.8005030234922 269.58952747899616Q1010.9343393803179 273.3053459624338 1010.9343393803179 277.8673409321989Q1010.9343393803179 283.0179804141917 1008.0279071011933 287.0649114357575Q1005.1214748220688 291.1118424573233 999.4557713918766 292.8041954299781L1011.3758227644886 313.25959222989246ZM983.4152084336704 284.8574945149034H991.2147482206881Q994.6730347300262 284.8574945149034 996.4021779846952 283.16514154224865Q998.1313212393642 281.47278856959383 998.1313212393642 278.38240488039816Q998.1313212393642 275.43918231925943 996.4021779846952 273.7468293466046Q994.6730347300262 272.0544763739498 991.2147482206881 272.0544763739498H983.4152084336704Z" fill="#10b981"/>
  <path d="M1057.2900947182532 295.74741799111683H1028.8144164392359Q1029.1087386953495 299.5736073205972 1031.2793653341894 301.5970728313801Q1033.4499919730292 303.620538342163 1036.6139562262535 303.620538342163Q1041.3231123240755 303.620538342163 1043.1626264247873 299.6471878846257H1056.5542890779686Q1055.52416118157 303.6941189061915 1052.838470594531 306.9316637234441Q1050.1527800074919 310.1692085406968 1046.105848985926 312.0087226414085Q1042.0589179643603 313.8482367421202 1037.0554396104242 313.8482367421202Q1031.0218333600899 313.8482367421202 1026.312677262268 311.2729170011238Q1021.6035211644459 308.6975972601274 1018.9546208594209 303.9148605982769Q1016.305720554396 299.1321239364264 1016.305720554396 292.73061486594963Q1016.305720554396 286.3291057954728 1018.9178305774067 281.5463691336223Q1021.5299406004174 276.76363247177187 1026.2390966982393 274.18831273077546Q1030.9482527960613 271.612992989779 1037.0554396104242 271.612992989779Q1043.0154652967303 271.612992989779 1047.651040830524 274.114732166747Q1052.2866163643173 276.6164713437149 1054.898726387328 281.25204687750846Q1057.5108364103387 285.887622411302 1057.5108364103387 292.0683897896934Q1057.5108364103387 293.83432332637665 1057.2900947182532 295.74741799111683ZM1044.6342377053566 288.7572644084123Q1044.6342377053566 285.5197195911596 1042.4268207845025 283.60662492641944Q1040.2194038636485 281.69353026167926 1036.9082784823675 281.69353026167926Q1033.7443142291431 281.69353026167926 1031.5736875903033 283.533044362391Q1029.4030609514634 285.37255846310273 1028.8879970032642 288.7572644084123ZM1045.5172044736983 261.6796168459357 1027.7842885428372 269.111253812811V260.42874725745173L1045.5172044736983 251.8934018301493Z" fill="#10b981"/>
  <path d="M1079.7321667469362 271.612992989779Q1084.0734200246159 271.612992989779 1087.3477551238827 273.37892652646224Q1090.6220902231496 275.14486006314553 1092.388023759833 278.01450206025584V272.20163750200675H1104.9703002087012V313.25959222989246H1092.388023759833V307.44672767164343Q1090.5485096591212 310.3163696687537 1087.2741745598544 312.0823032054369Q1083.9998394605875 313.8482367421202 1079.6585861829078 313.8482367421202Q1074.655107828972 313.8482367421202 1070.5345962433776 311.23612671910956Q1066.4140846577834 308.6240166960989 1064.0227163268582 303.8044897522342Q1061.6313479959329 298.98496280836946 1061.6313479959329 292.65703430192116Q1061.6313479959329 286.3291057954728 1064.0227163268582 281.5463691336223Q1066.4140846577834 276.76363247177187 1070.5345962433776 274.18831273077546Q1074.655107828972 271.612992989779 1079.7321667469362 271.612992989779ZM1083.4111949483597 282.5764970300209Q1079.6585861829078 282.5764970300209 1077.046476159897 285.26218761706Q1074.4343661368864 287.94787820409914 1074.4343661368864 292.65703430192116Q1074.4343661368864 297.3661903997432 1077.046476159897 300.12546155081077Q1079.6585861829078 302.8847327018783 1083.4111949483597 302.8847327018783Q1087.1638037138116 302.8847327018783 1089.7759137368223 300.16225183282495Q1092.388023759833 297.43977096377165 1092.388023759833 292.73061486594963Q1092.388023759833 288.0214587681276 1089.7759137368223 285.29897789907426Q1087.1638037138116 282.5764970300209 1083.4111949483597 282.5764970300209Z" fill="#10b981"/>
  <path d="M1154.9315031840317 289.2723283566116V313.25959222989246H1142.4228072991918V290.96468132926634Q1142.4228072991918 286.84416974367207 1140.2889709423662 284.56317225878956Q1138.1551345855407 282.282174773907 1134.5496869481458 282.282174773907Q1130.9442393107506 282.282174773907 1128.810402953925 284.56317225878956Q1126.6765665970995 286.84416974367207 1126.6765665970995 290.96468132926634V313.25959222989246H1114.0942901482313V272.20163750200675H1126.6765665970995V277.64659924011346Q1128.5896612618396 274.9241183710601 1131.8272060790923 273.34213624444806Q1135.064750896345 271.76015411783595 1139.1116819179108 271.76015411783595Q1146.3225771927007 271.76015411783595 1150.6270401883662 276.43251993364373Q1154.9315031840317 281.1048857494515 1154.9315031840317 289.2723283566116Z" fill="#10b981"/>
  <path d="M1162.510301278964 261.1645528977364Q1162.510301278964 258.22133033659765 1164.6073473537754 256.2714453898432Q1166.7043934285869 254.3215604430888 1170.015518809868 254.3215604430888Q1173.2530636271206 254.3215604430888 1175.350109701932 256.2714453898432Q1177.4471557767433 258.22133033659765 1177.4471557767433 261.1645528977364Q1177.4471557767433 264.0341948948467 1175.350109701932 265.9840798416011Q1173.2530636271206 267.9339647883556 1170.015518809868 267.9339647883556Q1166.7043934285869 267.9339647883556 1164.6073473537754 265.9840798416011Q1162.510301278964 264.0341948948467 1162.510301278964 261.1645528977364ZM1176.2698667522877 272.20163750200675V313.25959222989246H1163.6875903034195V272.20163750200675Z" fill="#10b981"/>
  <path d="M1254.4860063145502 289.2723283566116V313.25959222989246H1241.9773104297105V290.96468132926634Q1241.9773104297105 286.991330871729 1239.8802643548993 284.82070423288917Q1237.7832182800878 282.6500775940494 1234.1041900786643 282.6500775940494Q1230.425161877241 282.6500775940494 1228.3281158024297 284.82070423288917Q1226.2310697276182 286.991330871729 1226.2310697276182 290.96468132926634V313.25959222989246H1213.7223738427783V290.96468132926634Q1213.7223738427783 286.991330871729 1211.625327767967 284.82070423288917Q1209.5282816931556 282.6500775940494 1205.8492534917323 282.6500775940494Q1202.1702252903087 282.6500775940494 1200.0731792154975 284.82070423288917Q1197.976133140686 286.991330871729 1197.976133140686 290.96468132926634V313.25959222989246H1185.3938566918177V272.20163750200675H1197.976133140686V277.3522769839996Q1199.8892278054261 274.77695724300315 1202.9796114946218 273.2685556804196Q1206.0699951838176 271.76015411783595 1209.9697650773264 271.76015411783595Q1214.60534061112 271.76015411783595 1218.2475785305292 273.7468293466046Q1221.8898164499385 275.7335045753733 1223.9500722427356 279.41253277679675Q1226.0839085995613 276.0278268314872 1229.7629368009848 273.89399047466156Q1233.441965002408 271.76015411783595 1237.7832182800878 271.76015411783595Q1245.4355969390485 271.76015411783595 1249.9608016267994 276.3957296516295Q1254.4860063145502 281.03130518542304 1254.4860063145502 289.2723283566116Z" fill="#10b981"/>
  <path d="M1278.9147535720017 271.612992989779Q1283.2560068496814 271.612992989779 1286.5303419489483 273.37892652646224Q1289.8046770482151 275.14486006314553 1291.5706105848985 278.01450206025584V272.20163750200675H1304.1528870337668V313.25959222989246H1291.5706105848985V307.44672767164343Q1289.7310964841868 310.3163696687537 1286.45676138492 312.0823032054369Q1283.182426285653 313.8482367421202 1278.8411730079733 313.8482367421202Q1273.8376946540375 313.8482367421202 1269.7171830684433 311.23612671910956Q1265.596671482849 308.6240166960989 1263.2053031519235 303.8044897522342Q1260.8139348209984 298.98496280836946 1260.8139348209984 292.65703430192116Q1260.8139348209984 286.3291057954728 1263.2053031519235 281.5463691336223Q1265.596671482849 276.76363247177187 1269.7171830684433 274.18831273077546Q1273.8376946540375 271.612992989779 1278.9147535720017 271.612992989779ZM1282.5937817734252 282.5764970300209Q1278.8411730079733 282.5764970300209 1276.2290629849626 285.26218761706Q1273.616952961952 287.94787820409914 1273.616952961952 292.65703430192116Q1273.616952961952 297.3661903997432 1276.2290629849626 300.12546155081077Q1278.8411730079733 302.8847327018783 1282.5937817734252 302.8847327018783Q1286.3463905388771 302.8847327018783 1288.9585005618878 300.16225183282495Q1291.5706105848985 297.43977096377165 1291.5706105848985 292.73061486594963Q1291.5706105848985 288.0214587681276 1288.9585005618878 285.29897789907426Q1286.3463905388771 282.5764970300209 1282.5937817734252 282.5764970300209Z" fill="#10b981"/>
  <path d="M1336.1604323861507 302.59041044576446V313.25959222989246H1329.7589233156739Q1322.9159308610263 313.25959222989246 1319.0897415315458 309.9116765665971Q1315.2635522020655 306.5637609033018 1315.2635522020655 298.98496280836946V282.6500775940494H1310.2600738481297V272.20163750200675H1315.2635522020655V262.19468079413497H1327.8458286509338V272.20163750200675H1336.0868518221223V282.6500775940494H1327.8458286509338V299.1321239364264Q1327.8458286509338 300.9716380371381 1328.7287954192752 301.7810242414513Q1329.611762187617 302.59041044576446 1331.672017980414 302.59041044576446Z" fill="#10b981"/>
  <path d="M1381.6332209557445 295.74741799111683H1353.1575426767272Q1353.4518649328409 299.5736073205972 1355.6224915716807 301.5970728313801Q1357.7931182105206 303.620538342163 1360.9570824637449 303.620538342163Q1365.6662385615668 303.620538342163 1367.5057526622786 299.6471878846257H1380.89741531546Q1379.8672874190613 303.6941189061915 1377.1815968320223 306.9316637234441Q1374.4959062449832 310.1692085406968 1370.4489752234174 312.0087226414085Q1366.4020442018516 313.8482367421202 1361.3985658479155 313.8482367421202Q1355.3649595975812 313.8482367421202 1350.6558034997593 311.2729170011238Q1345.946647401937 308.6975972601274 1343.2977470969122 303.9148605982769Q1340.6488467918873 299.1321239364264 1340.6488467918873 292.73061486594963Q1340.6488467918873 286.3291057954728 1343.260956814898 281.5463691336223Q1345.8730668379087 276.76363247177187 1350.5822229357307 274.18831273077546Q1355.2913790335526 271.612992989779 1361.3985658479155 271.612992989779Q1367.3585915342217 271.612992989779 1371.994167068015 274.114732166747Q1376.6297426018086 276.6164713437149 1379.2418526248193 281.25204687750846Q1381.85396264783 285.887622411302 1381.85396264783 292.0683897896934Q1381.85396264783 293.83432332637665 1381.6332209557445 295.74741799111683ZM1368.977363942848 288.7572644084123Q1368.977363942848 285.5197195911596 1366.7699470219939 283.60662492641944Q1364.5625301011398 281.69353026167926 1361.2514047198588 281.69353026167926Q1358.0874404666345 281.69353026167926 1355.9168138277946 283.533044362391Q1353.7461871889548 285.37255846310273 1353.2311232407556 288.7572644084123Z" fill="#10b981"/>
  <path d="M1429.0191041900787 272.20163750200675V313.25959222989246H1416.4368277412104V307.6674693637288Q1414.5237330764703 310.38995023278216 1411.2493979772034 312.04551292342273Q1407.9750628779366 313.70107561406326 1404.0017124203991 313.70107561406326Q1399.2925563225772 313.70107561406326 1395.687108685182 311.6040295392519Q1392.081661047787 309.50698346444057 1390.0949858190183 305.5336330069032Q1388.1083105902499 301.56028254936587 1388.1083105902499 296.1889013752876V272.20163750200675H1400.6170064750895V294.49654840263287Q1400.6170064750895 298.61705998822714 1402.7508428319152 300.8980574731097Q1404.8846791887408 303.1790549579922 1408.4901268261358 303.1790549579922Q1412.169155027559 303.1790549579922 1414.3029913843848 300.8980574731097Q1416.4368277412104 298.61705998822714 1416.4368277412104 294.49654840263287V272.20163750200675Z" fill="#10b981"/>
  <path d="M1463.5283887194307 271.76015411783595V285.07823620698883H1460.0701022100927Q1455.3609461122705 285.07823620698883 1453.0063680633596 287.10170171777173Q1450.6517900144486 289.12516722855463 1450.6517900144486 294.20222614651897V313.25959222989246H1438.0695135655803V272.20163750200675H1450.6517900144486V279.0446299566544Q1452.8592069353026 275.6599240113448 1456.1703323165839 273.7100390645904Q1459.481457697865 271.76015411783595 1463.5283887194307 271.76015411783595Z" fill="#10b981"/>
</svg>